<?xml version="1.0" encoding="utf-8"?>
<svg preserveAspectRatio="none" viewBox="0 0 490 692" version="1.1" xmlns:xlink="http://www.w3.org/1999/xlink" xmlns="http://www.w3.org/2000/svg">
  <path d="M29.999 0L460.001 0Q460.737 0 461.473 0.0361351Q462.208 0.0722702 462.941 0.144453Q463.674 0.216636 464.403 0.324694Q465.131 0.432751 465.853 0.576422Q466.576 0.720093 467.29 0.899032Q468.004 1.07797 468.709 1.29175Q469.414 1.50552 470.107 1.75362Q470.801 2.00172 471.481 2.28354Q472.161 2.56536 472.827 2.88022Q473.493 3.19509 474.142 3.54224Q474.792 3.8894 475.423 4.268Q476.055 4.6466 476.667 5.05574Q477.28 5.46488 477.871 5.90358Q478.463 6.34227 479.032 6.80946Q479.601 7.27665 480.147 7.77121Q480.693 8.26577 481.213 8.7865Q481.734 9.30724 482.229 9.8529Q482.723 10.3986 483.19 10.9678Q483.658 11.5371 484.096 12.1286Q484.535 12.7201 484.944 13.3324Q485.353 13.9448 485.732 14.5764Q486.111 15.2081 486.458 15.8576Q486.805 16.507 487.12 17.1728Q487.434 17.8385 487.716 18.5189Q487.998 19.1993 488.246 19.8926Q488.494 20.586 488.708 21.2908Q488.922 21.9955 489.101 22.7098Q489.28 23.4242 489.423 24.1465Q489.567 24.8688 489.675 25.5972Q489.783 26.3257 489.855 27.0586Q489.928 27.7915 489.964 28.527Q490 29.2626 490 29.999L490 661.581Q490 662.318 489.964 663.053Q489.928 663.789 489.855 664.522Q489.783 665.255 489.675 665.983Q489.567 666.712 489.423 667.434Q489.28 668.156 489.101 668.871Q488.922 669.585 488.708 670.29Q488.494 670.994 488.246 671.688Q487.998 672.381 487.716 673.061Q487.434 673.742 487.12 674.407Q486.805 675.073 486.458 675.723Q486.11 676.372 485.732 677.004Q485.353 677.635 484.944 678.248Q484.535 678.86 484.096 679.452Q483.658 680.043 483.19 680.612Q482.723 681.182 482.229 681.727Q481.734 682.273 481.213 682.794Q480.693 683.315 480.147 683.809Q479.601 684.304 479.032 684.771Q478.463 685.238 477.871 685.677Q477.28 686.115 476.667 686.525Q476.055 686.934 475.423 687.312Q474.792 687.691 474.142 688.038Q473.493 688.385 472.827 688.7Q472.161 689.015 471.481 689.297Q470.801 689.579 470.107 689.827Q469.414 690.075 468.709 690.289Q468.004 690.502 467.29 690.681Q466.576 690.86 465.853 691.004Q465.131 691.148 464.403 691.256Q463.674 691.364 462.941 691.436Q462.208 691.508 461.473 691.544Q460.737 691.58 460.001 691.58L29.999 691.58Q29.2626 691.58 28.527 691.544Q27.7915 691.508 27.0586 691.436Q26.3257 691.364 25.5972 691.256Q24.8688 691.148 24.1465 691.004Q23.4242 690.86 22.7098 690.681Q21.9955 690.502 21.2907 690.289Q20.586 690.075 19.8926 689.827Q19.1993 689.579 18.5189 689.297Q17.8385 689.015 17.1728 688.7Q16.507 688.385 15.8576 688.038Q15.2081 687.691 14.5764 687.312Q13.9448 686.934 13.3324 686.525Q12.7201 686.115 12.1286 685.677Q11.5371 685.238 10.9678 684.771Q10.3986 684.304 9.8529 683.809Q9.30724 683.315 8.7865 682.794Q8.26577 682.273 7.77121 681.727Q7.27665 681.182 6.80946 680.613Q6.34227 680.043 5.90358 679.452Q5.46488 678.86 5.05574 678.248Q4.6466 677.636 4.268 677.004Q3.8894 676.372 3.54224 675.723Q3.19509 675.073 2.88022 674.408Q2.56536 673.742 2.28354 673.061Q2.00172 672.381 1.75362 671.688Q1.50552 670.994 1.29175 670.29Q1.07797 669.585 0.899032 668.871Q0.720093 668.156 0.576422 667.434Q0.432751 666.712 0.324694 665.983Q0.216636 665.255 0.144453 664.522Q0.0722702 663.789 0.0361351 663.053Q0 662.318 0 661.581L0 29.999Q0 29.2626 0.0361351 28.527Q0.0722702 27.7915 0.144453 27.0586Q0.216636 26.3257 0.324694 25.5972Q0.432751 24.8688 0.576422 24.1465Q0.720093 23.4242 0.899032 22.7098Q1.07797 21.9955 1.29175 21.2907Q1.50552 20.586 1.75362 19.8926Q2.00172 19.1993 2.28354 18.5189Q2.56536 17.8385 2.88022 17.1728Q3.19509 16.507 3.54224 15.8576Q3.8894 15.2081 4.268 14.5764Q4.6466 13.9448 5.05574 13.3324Q5.46488 12.7201 5.90358 12.1286Q6.34227 11.5371 6.80946 10.9678Q7.27665 10.3986 7.77121 9.8529Q8.26577 9.30724 8.7865 8.7865Q9.30724 8.26577 9.8529 7.77121Q10.3986 7.27665 10.9678 6.80946Q11.5371 6.34227 12.1286 5.90358Q12.7201 5.46488 13.3324 5.05574Q13.9448 4.6466 14.5764 4.268Q15.2081 3.8894 15.8576 3.54224Q16.507 3.19509 17.1728 2.88022Q17.8385 2.56536 18.5189 2.28354Q19.1993 2.00172 19.8926 1.75362Q20.586 1.50552 21.2908 1.29175Q21.9955 1.07797 22.7098 0.899032Q23.4242 0.720093 24.1465 0.576422Q24.8688 0.432751 25.5972 0.324694Q26.3257 0.216636 27.0586 0.144453Q27.7915 0.0722702 28.527 0.0361351Q29.2626 0 29.999 0L29.999 0Z" id="Background" fill="#FFFFFF" fill-rule="evenodd" stroke="none" />
</svg>