<?xml version="1.0" encoding="utf-8"?>
<svg width="63px" height="63px" viewBox="0 0 63 63" version="1.1" xmlns:xlink="http://www.w3.org/1999/xlink" xmlns="http://www.w3.org/2000/svg">
  <defs>
    <linearGradient x1="0.50000787" y1="-0.006220579" x2="0.50000787" y2="0.98327446" id="gradient_1">
      <stop offset="0" stop-color="#6DC7FF" />
      <stop offset="1" stop-color="#E6ABFF" />
    </linearGradient>
    <linearGradient x1="0.5" y1="-0.019230776" x2="0.5" y2="1.0224423" id="gradient_2">
      <stop offset="0" stop-color="#1A6DFF" />
      <stop offset="1" stop-color="#C822FF" />
    </linearGradient>
    <path d="M0 0L62.1233 0L62.1233 62.433L0 62.433L0 0Z" id="path_1" />
    <clipPath id="mask_1">
      <use xlink:href="#path_1" />
    </clipPath>
  </defs>
  <g id="Github-icon">
    <path d="M0 0L62.1233 0L62.1233 62.433L0 62.433L0 0Z" id="Background" fill="none" fill-rule="evenodd" stroke="none" />
    <g clip-path="url(#mask_1)">
      <path d="M23.8209 58.1451C23.8175 57.7236 23.8141 55.8982 23.8107 54.1895L23.8072 52.4145C16.1394 53.4623 14.2831 48.0856 14.2626 48.0283C13.1983 45.3165 11.7431 44.5412 11.6804 44.5091L11.5391 44.4266C11.0115 44.0648 9.6122 43.1016 10.0099 41.835C10.3688 40.6933 11.7602 40.5753 12.3926 40.5959C15.8955 40.8422 17.6686 44.0064 17.7416 44.1403C19.5295 47.2198 22.2586 46.9014 24.0192 46.2521C24.1833 45.4642 24.4374 44.7404 24.7701 44.1014C19.1227 43.0948 12.7242 40.076 12.7242 29.0946C12.7242 26.0793 13.6586 23.4144 15.5058 21.1595C15.0933 19.7784 14.6238 16.9612 16.014 13.4122L16.2123 12.906L16.7274 12.7411C17.2014 12.5842 19.7904 12.0265 25.1131 15.5274C27.3101 14.9616 29.6359 14.6696 32.0346 14.6582C34.4447 14.6696 36.7728 14.9616 38.9743 15.5274C44.2925 12.0253 46.8758 12.5899 47.3509 12.7411L47.8649 12.9071L48.0631 13.411C49.4591 16.9589 48.9896 19.7772 48.5771 21.1595C50.4208 23.4075 51.3552 26.0736 51.3552 29.0946C51.3552 40.0783 44.95 43.0879 39.29 44.0819C39.9315 45.3016 40.2791 46.8327 40.2791 48.523C40.2791 50.4504 40.2711 56.7731 40.262 58.1451L37.9829 58.129C37.992 56.7594 38 50.447 38 48.5219C38 45.7253 36.9254 44.4885 36.4617 44.0854L34.4903 42.371L37.0816 42.0813C43.0128 41.4193 49.075 39.3568 49.075 29.0935C49.075 26.4252 48.1896 24.0992 46.4427 22.181L45.9527 21.6439L46.2285 20.9717C46.4177 20.5125 47.2472 18.1751 46.1795 14.9124C45.3158 14.9639 43.2532 15.3728 39.8164 17.7147L39.3788 18.0113L38.8717 17.8705C36.7488 17.2773 34.3843 16.9589 32.0335 16.9474C29.6952 16.9589 27.3341 17.2773 25.2146 17.8705L24.7075 18.0113L24.271 17.7147C20.8308 15.3739 18.7637 14.9617 17.8965 14.9101C16.8311 18.1751 17.6618 20.5125 17.851 20.9717L18.1267 21.6439L17.6379 22.181C15.8876 24.1061 15.001 26.432 15.001 29.0935C15.001 39.3522 21.0519 41.4274 26.9706 42.1042L29.5368 42.3973L27.5905 44.1037C27.1666 44.4759 26.4168 45.3772 26.1615 47.2267L26.076 47.8554L25.4994 48.1154C23.9941 48.7933 18.8458 50.5913 15.7588 45.2695C15.7417 45.2409 15.1389 44.1873 14.0472 43.4864C14.7834 44.2182 15.6802 45.4024 16.4038 47.2507C16.479 47.4683 17.9501 51.3987 24.6995 49.9294L26.0738 49.6293L26.0874 54.1849C26.0908 55.8879 26.0943 57.7076 26.0977 58.129L23.8209 58.1451L23.8209 58.1451Z" id="Shape" fill="url(#gradient_1)" fill-rule="evenodd" stroke="none" />
      <path d="M31.0617 60.3519C15.0754 60.3519 2.0708 47.2824 2.0708 31.2165C2.0708 15.1505 15.0754 2.08105 31.0617 2.08105C47.0479 2.08105 60.0525 15.1505 60.0525 31.2165C60.0525 47.2824 47.0479 60.3519 31.0617 60.3519L31.0617 60.3519ZM31.0616 4.32178C16.3064 4.32178 4.30084 16.3872 4.30084 31.216C4.30084 46.0448 16.3064 58.1102 31.0616 58.1102C45.8169 58.1102 57.8224 46.0448 57.8224 31.216C57.8224 16.3872 45.8169 4.32178 31.0616 4.32178L31.0616 4.32178Z" id="Shape" fill="url(#gradient_2)" fill-rule="evenodd" stroke="none" />
    </g>
  </g>
</svg>