<?xml version="1.0" encoding="utf-8"?>
<svg width="64px" height="64px" viewBox="0 0 64 64" version="1.1" xmlns:xlink="http://www.w3.org/1999/xlink" xmlns="http://www.w3.org/2000/svg">
  <defs>
    <path d="M0 0L63.8006 0L63.8006 63.8227L0 63.8227L0 0Z" id="path_1" />
    <clipPath id="mask_1">
      <use xlink:href="#path_1" />
    </clipPath>
  </defs>
  <g id="Services-icon">
    <path d="M0 0L63.8006 0L63.8006 63.8227L0 63.8227L0 0Z" id="Background" fill="none" fill-rule="evenodd" stroke="none" />
    <g clip-path="url(#mask_1)">
      <path d="M44.8598 42.1031L44.8598 39.6698C44.8734 39.2005 44.5579 38.7851 44.1021 38.6726L39.028 37.4061C38.6757 37.3157 38.4006 37.0405 38.3102 36.6881C37.9572 35.3664 37.4345 34.096 36.7551 32.9086C36.577 32.6001 36.577 32.2199 36.7551 31.9114L39.4467 27.4139C39.6813 27.022 39.6197 26.5207 39.2971 26.1973L37.5825 24.482C37.2592 24.1594 36.7581 24.0978 36.3663 24.3325L31.9003 27.0549C31.5918 27.233 31.2118 27.233 30.9034 27.0549C29.7201 26.3726 28.4535 25.8463 27.1351 25.4892C26.7829 25.3988 26.5078 25.1236 26.4174 24.7712L25.1513 19.6953C25.0389 19.2394 24.6237 18.9238 24.1545 18.9374L21.7121 18.9374C21.2429 18.9238 20.8277 19.2394 20.7152 19.6953L19.4492 24.7712C19.3588 25.1236 19.0837 25.3988 18.7314 25.4892C17.4096 25.8454 16.1396 26.3717 14.9532 27.0549C14.6448 27.233 14.2648 27.233 13.9563 27.0549L9.46038 24.3624C9.06858 24.1277 8.56747 24.1893 8.24418 24.512L6.55944 26.2372C6.23692 26.5606 6.1753 27.0619 6.40991 27.4538L9.1015 31.9114C9.27958 32.2199 9.27958 32.6001 9.1015 32.9086C8.41943 34.0923 7.89336 35.3594 7.53639 36.6782C7.44598 37.0306 7.1709 37.3057 6.81863 37.3962L1.75446 38.7025C1.2987 38.815 0.983155 39.2304 0.996826 39.6998L0.996826 42.133C0.983155 42.6024 1.2987 43.0177 1.75446 43.1302L6.8286 44.3967C7.18087 44.4872 7.45595 44.7623 7.54636 45.1147C7.90179 46.4262 8.42446 47.6864 9.1015 48.8643C9.27958 49.1729 9.27958 49.553 9.1015 49.8615L6.40991 54.3591C6.1753 54.751 6.23692 55.2523 6.55944 55.5757L8.27409 57.2909C8.59738 57.6136 9.09849 57.6752 9.49028 57.4405L13.9563 54.7181C14.2648 54.5399 14.6448 54.5399 14.9532 54.7181C16.1365 55.4004 17.4031 55.9266 18.7214 56.2837C19.0737 56.3741 19.3488 56.6493 19.4392 57.0017L20.7052 62.0776C20.8177 62.5335 21.2329 62.8492 21.7021 62.8355L24.1345 62.8355C24.6038 62.8492 25.0189 62.5335 25.1314 62.0776L26.3975 57.0017C26.4879 56.6493 26.7629 56.3741 27.1152 56.2837C28.4404 55.9282 29.7138 55.4019 30.9034 54.7181C31.2118 54.5399 31.5918 54.5399 31.9003 54.7181L36.3962 57.4106C36.788 57.6453 37.2891 57.5836 37.6124 57.261L39.327 55.5457C39.6496 55.2223 39.7112 54.7211 39.4766 54.3291L36.7551 49.8615C36.577 49.553 36.577 49.1729 36.7551 48.8643C37.4372 47.6806 37.9632 46.4136 38.3202 45.0948C38.4106 44.7424 38.6857 44.4672 39.0379 44.3768L44.1121 43.1103C44.5676 42.9931 44.8793 42.5732 44.8598 42.1031L44.8598 42.1031Z" id="Shape" fill="#C2CDE7" fill-rule="evenodd" stroke="none" />
      <path d="M22.9283 29.9169C16.8722 29.9169 11.9626 34.8281 11.9626 40.8864C11.9626 46.9447 16.8721 51.8559 22.9283 51.8559C28.9845 51.8559 33.894 46.9447 33.8941 40.8865C33.8941 34.8282 28.9846 29.9169 22.9284 29.9169L22.9283 29.9169Z" id="Shape" fill="#ACB7D0" fill-rule="evenodd" stroke="none" />
      <path d="M62.1658 10.6505L61.4181 8.80558L57.2511 9.59339C56.5073 8.42184 55.5258 7.4196 54.3702 6.65157L55.2275 2.49312L53.3932 1.71528L51.0007 5.21555C49.6359 4.91308 48.2226 4.90289 46.8536 5.18564L44.5409 1.6355L42.6966 2.38342L43.4842 6.55184C42.313 7.29596 41.3111 8.27781 40.5434 9.43384L36.3863 8.58619L35.6088 10.4211L39.1078 12.8144C38.8196 14.1722 38.8196 15.5753 39.1078 16.933L35.5589 19.2665L36.3066 21.1114L40.4736 20.3236C41.2174 21.4951 42.1989 22.4974 43.3546 23.2654L42.4972 27.4239L44.3315 28.2017L46.724 24.7014C48.0813 24.9898 49.4839 24.9898 50.8412 24.7014L53.1739 28.2516L55.0181 27.5036L54.2306 23.3352C55.4017 22.5911 56.4036 21.6092 57.1714 20.4532L61.3284 21.3108L62.106 19.4759L58.6069 17.0826C58.8952 15.7249 58.8952 14.3217 58.6069 12.964L62.1658 10.6505Z" id="Shape" fill="#C2CDE7" fill-rule="evenodd" stroke="none" />
      <path d="M48.8474 9.97229C46.0946 9.97229 43.863 12.2047 43.8629 14.9584C43.8629 17.7122 46.0945 19.9446 48.8473 19.9446C51.6002 19.9446 53.8318 17.7122 53.8318 14.9585C53.8318 12.2047 51.6002 9.97231 48.8474 9.97229L48.8474 9.97229ZM22.9284 34.9031C19.625 34.9031 16.9471 37.5819 16.9471 40.8864C16.947 44.191 19.625 46.8698 22.9283 46.8698C26.2317 46.8698 28.9096 44.191 28.9097 40.8865C28.9097 37.582 26.2318 34.9031 22.9284 34.9031L22.9284 34.9031Z" id="Shape" fill="#F9DD8F" fill-rule="evenodd" stroke="none" />
      <path d="M30.704 31.672C30.2718 31.3307 29.6449 31.4044 29.3036 31.8367C28.9623 32.269 29.0359 32.8961 29.4679 33.2377C29.987 33.6484 30.4675 34.1057 30.9034 34.6039C31.2731 34.9889 31.8803 35.0144 32.2809 34.6617C32.6816 34.309 32.7335 33.7033 32.3988 33.2875C31.8841 32.6986 31.3169 32.1578 30.704 31.672L30.704 31.672ZM18.9408 31.5424C19.0491 31.5432 19.1569 31.5264 19.2598 31.4925C21.4957 30.7481 23.9124 30.7481 26.1483 31.4925C26.6713 31.666 27.2359 31.3825 27.4093 30.8593C27.5828 30.3361 27.2994 29.7713 26.7763 29.5978C24.129 28.72 21.2692 28.72 18.6218 29.5978C18.1551 29.7512 17.8697 30.2218 17.9493 30.7067C18.0288 31.1916 18.4496 31.5462 18.9408 31.5424L18.9408 31.5424ZM15.023 47.0693L13.7371 48.3557C13.4859 48.6086 13.3886 48.9764 13.482 49.3204C13.5754 49.6645 13.8452 49.9326 14.1898 50.0237C14.5344 50.1147 14.9014 50.015 15.1525 49.7619L16.4386 48.4754C16.7773 48.0797 16.7546 47.4899 16.3863 47.1216C16.0181 46.7532 15.4285 46.7304 15.033 47.0693L15.023 47.0693ZM14.5147 44.2271C14.2996 43.7207 13.7153 43.4842 13.2087 43.6986L11.5439 44.4066C11.2023 44.5361 10.9588 44.8422 10.9094 45.2043C10.8601 45.5665 11.0127 45.9266 11.3072 46.1429C11.6017 46.3593 11.9909 46.3971 12.3215 46.2415L13.9564 45.5335C14.2049 45.4359 14.4039 45.2427 14.5088 44.9972C14.6138 44.7516 14.6159 44.4742 14.5147 44.2271L14.5147 44.2271ZM10.9657 41.8836L12.7801 41.8836C13.3306 41.8836 13.7769 41.4371 13.7769 40.8864C13.7769 40.3356 13.3306 39.8892 12.7801 39.8892L10.9657 39.8892C10.4152 39.8892 9.96884 40.3356 9.96884 40.8864C9.96884 41.4371 10.4152 41.8836 10.9657 41.8836L10.9657 41.8836ZM11.4143 37.4161L13.109 38.0643C13.4421 38.1927 13.8182 38.1335 14.0958 37.9092C14.3734 37.6848 14.5103 37.3294 14.4548 36.9767C14.3994 36.6241 14.16 36.3278 13.827 36.1995L12.1321 35.5513C11.6173 35.3532 11.0395 35.61 10.8414 36.1249C10.6432 36.6398 10.8998 37.2179 11.4145 37.4162L11.4143 37.4161ZM22.9284 33.9058C19.0744 33.9058 15.9502 37.0311 15.9502 40.8864C15.9502 44.7416 19.0744 47.867 22.9283 47.867C26.7823 47.867 29.9065 44.7417 29.9066 40.8864C29.9066 37.0311 26.7823 33.9057 22.9283 33.9058L22.9284 33.9058ZM22.9283 45.8726C20.1755 45.8726 17.9439 43.6402 17.9439 40.8864C17.9439 38.1327 20.1755 35.9003 22.9283 35.9003C25.6811 35.9003 27.9127 38.1326 27.9128 40.8864C27.9128 43.6402 25.6811 45.8726 22.9283 45.8726L22.9283 45.8726Z" id="Shape" fill="#8D6C9F" fill-rule="evenodd" stroke="none" />
      <path d="M22.9283 38.892C21.8272 38.892 20.9346 39.7849 20.9346 40.8864C20.9346 41.9879 21.8272 42.8809 22.9283 42.8809C24.0295 42.8809 24.9221 41.9879 24.9221 40.8864C24.9221 39.7849 24.0295 38.892 22.9284 38.892L22.9283 38.892ZM48.8473 8.9751C45.544 8.9751 42.866 11.6539 42.866 14.9585C42.866 18.263 45.5439 20.9418 48.8473 20.9419C52.1507 20.9419 54.8286 18.263 54.8286 14.9585C54.8286 11.6539 52.1507 8.97508 48.8473 8.9751L48.8473 8.9751ZM48.8474 19.1867C46.513 19.1867 44.6206 17.2937 44.6206 14.9585C44.6206 12.6233 46.513 10.7302 48.8474 10.7302C51.1817 10.7302 53.0742 12.6233 53.0742 14.9585C53.0688 17.2913 51.1796 19.1812 48.8475 19.1867L48.8474 19.1867Z" id="Shape" fill="#8D6C9F" fill-rule="evenodd" stroke="none" />
      <path d="M48.8473 12.964C47.7462 12.964 46.8536 13.8569 46.8536 14.9584C46.8536 16.06 47.7462 16.9529 48.8473 16.9529C49.9485 16.9529 50.8411 16.06 50.8411 14.9585C50.8411 13.857 49.9485 12.964 48.8474 12.964L48.8473 12.964ZM44.3514 37.7352L39.2773 36.4588C38.8966 35.0613 38.3335 33.7201 37.6025 32.4699L40.3041 27.9225C40.7733 27.1386 40.65 26.1361 40.005 25.4893L38.2804 23.8039C37.6338 23.1587 36.6316 23.0354 35.848 23.5048L31.362 26.1873C30.1112 25.4629 28.7705 24.9063 27.3745 24.5319L26.1084 19.456C25.882 18.5593 25.069 17.9359 24.1446 17.9502L21.7122 17.9502C20.7988 17.9498 20.002 18.5702 19.7782 19.456L18.5022 24.5319C17.1052 24.9127 15.7645 25.476 14.5146 26.2073L9.96885 23.5048C9.18526 23.0354 8.18304 23.1587 7.53645 23.8039L5.85171 25.5291C5.22646 26.1694 5.10418 27.148 5.55265 27.9225L8.23427 32.41C7.51007 33.6613 6.95368 35.0024 6.57944 36.3989L1.5053 37.7352C0.61979 37.9591 -0.000434707 38.7562 2.40255e-07 39.6699L2.40255e-07 42.1031C-0.00044564 43.0167 0.61977 43.8139 1.50527 44.0377L6.57944 45.3142C6.96008 46.7116 7.52318 48.0528 8.2542 49.3031L5.55265 53.8505C5.08344 54.6343 5.20666 55.6369 5.85171 56.2837L7.57632 57.969C8.22292 58.6143 9.22513 58.7376 10.0087 58.2682L14.4947 55.5857C15.7455 56.3101 17.0862 56.8667 18.4822 57.2411L19.7483 62.317C19.9747 63.2137 20.7877 63.8371 21.7122 63.8228L24.1446 63.8228C25.0579 63.8232 25.8547 63.2028 26.0785 62.317L27.3545 57.2411C28.7515 56.8603 30.0922 56.297 31.3421 55.5657L35.8879 58.2682C36.6714 58.7376 37.6737 58.6143 38.3203 57.969L40.0349 56.2538C40.6799 55.607 40.8032 54.6044 40.334 53.8206L37.6523 49.333C38.3765 48.0818 38.9329 46.7406 39.3072 45.3441L44.3813 44.0776C45.2695 43.8387 45.8791 43.0229 45.8567 42.1031L45.8567 39.6699C45.8571 38.7562 45.2369 37.9591 44.3514 37.7352L44.3514 37.7352ZM43.8629 42.103L38.7888 43.3695C38.0868 43.5487 37.5373 44.0946 37.3533 44.7956C37.0189 46.0305 36.5263 47.2171 35.8879 48.3257C35.5317 48.9428 35.5317 49.7031 35.8879 50.3202L38.5894 54.8476L36.8847 56.5529L32.3788 53.8504C31.7619 53.4941 31.0019 53.4941 30.3851 53.8504C29.2767 54.4889 28.0905 54.9816 26.8561 55.3163C26.1592 55.5035 25.6178 56.0527 25.4405 56.7523L24.1446 61.8282L21.7122 61.8282L20.4461 56.7523C20.2688 56.0527 19.7274 55.5035 19.0305 55.3163C17.7927 54.9823 16.6032 54.4896 15.4916 53.8504C15.1887 53.6746 14.8449 53.5818 14.4947 53.5811C14.1436 53.5848 13.7997 53.6811 13.4978 53.8604L8.97197 56.5529L7.26729 54.8476L9.95888 50.3601C10.315 49.743 10.315 48.9827 9.95888 48.3656C9.32071 47.2568 8.82817 46.0703 8.49347 44.8354C8.30949 44.1345 7.75991 43.5886 7.05795 43.4094L1.99377 42.103L1.99377 39.6698L7.06792 38.4033C7.76732 38.2259 8.31632 37.6843 8.50343 36.9872C8.83733 35.7489 9.3299 34.559 9.96886 33.4471C10.325 32.83 10.325 32.0697 9.96885 31.4526L7.26729 26.9252L8.97197 25.2199L13.4579 27.9124C14.0748 28.2687 14.8348 28.2687 15.4517 27.9124C16.5601 27.2741 17.7462 26.7813 18.9807 26.4465C19.6814 26.2625 20.2271 25.7127 20.4062 25.0105L21.7122 19.9446L24.1446 19.9446L25.4106 25.0205C25.5897 25.7227 26.1355 26.2724 26.8361 26.4565C28.0707 26.7911 29.2568 27.2838 30.3651 27.9224C30.982 28.2787 31.742 28.2787 32.3589 27.9224L36.8847 25.2199L38.5894 26.9252L35.8879 31.4327C35.5317 32.0498 35.5317 32.81 35.8879 33.4271C36.5261 34.5359 37.0187 35.7224 37.3533 36.9573C37.5404 37.6544 38.0894 38.196 38.7888 38.3734L43.8629 39.6698L43.8629 42.103Z" id="Shape" fill="#8D6C9F" fill-rule="evenodd" stroke="none" />
      <path d="M62.6442 18.6682L59.6535 16.6737C59.8115 15.6159 59.8115 14.5404 59.6535 13.4826L62.6442 11.4881C63.0419 11.2277 63.2004 10.7226 63.023 10.2815L62.2753 8.43659C62.0982 7.99621 61.6353 7.74176 61.1688 7.82828L57.6398 8.49642C57.0119 7.63231 56.2593 6.86609 55.4068 6.22273L56.1345 2.70252C56.229 2.23767 55.983 1.7706 55.5463 1.58562L53.7719 0.797808C53.3328 0.61089 52.823 0.7614 52.5557 1.15681L50.5619 4.1485C49.5044 3.99048 48.4294 3.99048 47.3719 4.1485L45.3781 1.15681C45.1362 0.736637 44.6271 0.551473 44.1719 0.718029L42.3277 1.46595C41.8874 1.64312 41.6331 2.10615 41.7196 2.57288L42.3875 6.10307C41.5238 6.73145 40.7579 7.4842 40.1146 8.33687L36.5956 7.60889C36.1309 7.51441 35.664 7.76045 35.4791 8.19725L34.7015 10.0322C34.5146 10.4714 34.6651 10.9814 35.0604 11.2488L38.051 13.2432C37.8929 14.3011 37.8929 15.3765 38.051 16.4344L35.0604 18.4288C34.6627 18.6893 34.5041 19.1944 34.6816 19.6355L35.4292 21.4804C35.6063 21.9207 36.0692 22.1752 36.5358 22.0887L40.0647 21.4205C40.6927 22.2846 41.4452 23.0509 42.2978 23.6942L41.57 27.2144C41.4756 27.6793 41.7215 28.1463 42.1582 28.3313L43.9925 29.1092C44.4315 29.2961 44.9414 29.1456 45.2087 28.7502L47.2024 25.7585C48.26 25.9159 49.3349 25.9159 50.3925 25.7585L52.3862 28.7502C52.6466 29.148 53.1515 29.3066 53.5925 29.1291L55.4367 28.3812C55.8769 28.204 56.1313 27.741 56.0448 27.2743L55.3769 23.7441C56.2407 23.1159 57.0067 22.3631 57.6498 21.5103L61.1688 22.2383C61.6335 22.3327 62.1004 22.0867 62.2853 21.6499L63.0629 19.815C63.2009 19.3819 63.0287 18.9103 62.6442 18.6682L62.6442 18.6682ZM60.7102 20.1939L57.3607 19.4959C56.9729 19.4295 56.5824 19.5975 56.3638 19.9247C55.6752 20.9651 54.775 21.8486 53.7221 22.5175C53.3912 22.7335 53.2191 23.1247 53.2834 23.5147L53.8317 26.9252L53.5027 27.0549L51.6186 24.1928C51.4475 23.9245 51.1586 23.7541 50.841 23.7341L50.6417 23.7341C49.4226 23.9943 48.1623 23.9943 46.9432 23.7341C46.5596 23.6635 46.1701 23.8233 45.9463 24.1429L43.9526 26.9252L43.6236 26.7856L44.3214 23.4349C44.3877 23.047 44.2198 22.6564 43.8928 22.4377C42.8527 21.7489 41.9695 20.8484 41.3009 19.795C41.0849 19.4641 40.6938 19.292 40.304 19.3562L36.8847 19.9446L36.7551 19.6155L39.6161 17.7308C39.9432 17.5121 40.1111 17.1214 40.0448 16.7335C39.7833 15.5108 39.7833 14.2466 40.0448 13.0238C40.1153 12.6401 39.9556 12.2504 39.6361 12.0266L36.8847 10.0621L37.0242 9.73298L40.3738 10.431C40.7615 10.4974 41.152 10.3294 41.3706 10.0022C42.0592 8.96181 42.9594 8.07832 44.0124 7.40943C44.3432 7.19335 44.5153 6.80219 44.451 6.4122L43.8629 2.9917L44.1918 2.86206L46.0759 5.72411C46.2945 6.05129 46.6851 6.21927 47.0728 6.15292C48.2952 5.8922 49.5588 5.8922 50.7812 6.15292C51.1649 6.22347 51.5544 6.06371 51.7781 5.74406L53.742 2.9917L54.071 3.13131L53.3731 6.48201C53.3068 6.86991 53.4747 7.26055 53.8018 7.47924C54.8419 8.16807 55.725 9.06854 56.3937 10.1219C56.6097 10.4529 57.0007 10.625 57.3906 10.5607L60.8099 9.97231L60.9395 10.3014L58.0784 12.1862C57.7514 12.4048 57.5835 12.7955 57.6498 13.1834C57.911 14.4061 57.911 15.6703 57.6498 16.8931C57.5792 17.2769 57.739 17.6665 58.0585 17.8903L60.8099 19.8549L60.7102 20.1939Z" id="Shape" fill="#8D6C9F" fill-rule="evenodd" stroke="none" />
    </g>
  </g>
</svg>