<?xml version="1.0" encoding="utf-8"?>
<svg width="64px" height="64px" viewBox="0 0 64 64" version="1.1" xmlns:xlink="http://www.w3.org/1999/xlink" xmlns="http://www.w3.org/2000/svg">
  <defs>
    <path d="M0 0L63.1689 0L63.1689 63.8227L0 63.8227L0 0Z" id="path_1" />
    <clipPath id="mask_1">
      <use xlink:href="#path_1" />
    </clipPath>
  </defs>
  <g id="Key-icon">
    <path d="M0 0L63.1689 0L63.1689 63.8227L0 63.8227L0 0Z" id="Background" fill="none" fill-rule="evenodd" stroke="none" />
    <g clip-path="url(#mask_1)">
      <path d="M38.622 1.24658L16.7793 14.5895L24.6754 28.9197L3.20789 50.6892L4.44165 59.2554L13.1372 60.5219L14.4302 58.6571L15.1113 54.359L19.1778 53.6111L20.7274 48.7446L25.9684 47.4981L34.5456 38.892L48.0874 46.8699L62.182 24.9308L38.622 1.24658ZM40.6453 23.5448L35.4536 13.9614L40.1419 10.8002L52.2329 23.0162L49.183 27.9226L40.6453 23.5448Z" id="Shape" fill="#F9E3AE" fill-rule="evenodd" stroke="none" />
      <path d="M50.8411 12.5453L46.8437 16.5841L52.2328 23.0162L49.1829 27.9226L40.6452 23.5447L41.04 22.4478L5.31997 58.5375L4.44153 59.2555L13.1371 60.522L14.44 58.6472L15.1112 54.3492L19.1777 53.6012L20.7273 48.7447L25.9683 47.4982L34.5455 38.8921L48.0873 46.8699L62.1819 24.9309L50.8411 12.5453L50.8411 12.5453Z" id="Shape" fill="#F6D397" fill-rule="evenodd" stroke="none" />
      <path d="M25.3071 34.0951L4.79694 54.8475L3.04993 50.9483L24.7642 29.0093L25.6624 30.2658C26.4794 31.4602 26.3295 33.0749 25.3071 34.0952L25.3071 34.0951Z" id="Shape" fill="#FAEFDE" fill-rule="evenodd" stroke="none" />
      <path d="M25.465 15.4172L24.0733 16.8233C23.7916 17.067 23.6689 17.4496 23.7557 17.8139C23.8424 18.1782 24.1239 18.4626 24.4845 18.5503C24.845 18.6379 25.2238 18.5139 25.465 18.2294L26.8567 16.8233C27.1921 16.4276 27.1695 15.8378 26.8049 15.4695C26.4404 15.1011 25.8566 15.0783 25.465 15.4172L25.465 15.4172ZM28.9493 18.9474L27.5576 20.3535C27.2759 20.5972 27.1532 20.9799 27.2399 21.3442C27.3267 21.7085 27.6082 21.9929 27.9687 22.0805C28.3293 22.1682 28.708 22.0442 28.9492 21.7596L30.3409 20.3535C30.6763 19.9579 30.6538 19.3681 30.2892 18.9997C29.9246 18.6314 29.3409 18.6086 28.9493 18.9474L28.9493 18.9474ZM32.4431 22.4677L31.0515 23.8738C30.7698 24.1175 30.6471 24.5002 30.7338 24.8645C30.8206 25.2287 31.1021 25.5132 31.4626 25.6008C31.8232 25.6884 32.2019 25.5645 32.4431 25.2799L33.8348 23.8738C34.1702 23.4781 34.1477 22.8883 33.7831 22.52C33.4185 22.1516 32.8348 22.1289 32.4431 22.4677L32.4431 22.4677ZM35.9274 25.9979L34.5455 27.404C34.2623 27.6457 34.1371 28.0274 34.2212 28.3922C34.3054 28.7571 34.5849 29.0434 34.9447 29.1337C35.3046 29.2239 35.6841 29.1028 35.9274 28.8201L37.3191 27.414C37.6544 27.0183 37.6319 26.4285 37.2673 26.0602C36.9027 25.6918 36.319 25.669 35.9274 26.0079L35.9274 25.9979ZM39.4214 29.5178L38.0297 30.914C37.7481 31.1577 37.6254 31.5403 37.7121 31.9046C37.7988 32.2689 38.0803 32.5533 38.4409 32.641C38.8015 32.7286 39.1802 32.6046 39.4214 32.3201L40.8131 30.914C41.1485 30.5183 41.1259 29.9285 40.7613 29.5602C40.3968 29.1918 39.813 29.169 39.4214 29.5079L39.4214 29.5178ZM42.9154 33.0482L41.5237 34.4543C41.268 34.7054 41.1642 35.0753 41.2517 35.4247C41.3391 35.774 41.6044 36.0497 41.9475 36.1478C42.2907 36.246 42.6596 36.1516 42.9153 35.9004L44.3071 34.4941C44.6425 34.0985 44.6199 33.5087 44.2554 33.1404C43.8908 32.772 43.307 32.7492 42.9154 33.0881L42.9154 33.0482ZM46.3897 36.5684L45.0079 37.9845C44.7098 38.222 44.5729 38.6111 44.6558 38.9854C44.7387 39.3597 45.0267 39.6527 45.3966 39.7392C45.7664 39.8256 46.1525 39.6901 46.3897 39.3906L47.7814 37.9845C48.1682 37.5962 48.1703 36.9645 47.786 36.5736C47.4017 36.1827 46.7766 36.1804 46.3896 36.5686L46.3897 36.5684Z" id="Shape" fill="#8D6C9F" fill-rule="evenodd" stroke="none" />
      <path d="M62.0437 22.7567L40.5268 0.997116C39.544 0.0232683 38.0267 -0.137891 36.865 0.608197L17.5096 12.8243C16.133 13.6831 15.6935 15.4992 16.5226 16.9029L23.106 27.9921C23.3383 28.3841 23.2773 28.8853 22.9579 29.2087L2.79322 49.6021C2.34285 50.0566 2.13706 50.7027 2.24049 51.3373L3.43478 58.5871C3.57066 59.4289 4.22122 60.0902 5.05349 60.2326L12.2291 61.4392L12.5548 61.4392C13.0809 61.4396 13.5854 61.2278 13.9564 60.8509L14.8052 60.0331C15.1085 59.7289 15.3059 59.3335 15.3678 58.9063L15.9106 55.047L19.2665 54.5882C20.1535 54.4636 20.8464 53.7513 20.9543 52.8531L21.4083 49.4525L25.3564 48.8243C25.7675 48.7584 26.1475 48.563 26.4421 48.2658L34.1507 40.4774C34.4708 40.1548 34.9669 40.0932 35.3548 40.3279L46.3304 46.9794C47.7197 47.8171 49.5173 47.373 50.3673 45.9821L62.4582 26.4564C63.189 25.2759 63.0171 23.7422 62.0437 22.7567L62.0437 22.7567ZM60.7901 25.3995L48.6893 44.9552C48.405 45.4156 47.8085 45.5619 47.347 45.2843L36.3615 38.6327C35.1955 37.9234 33.701 38.1085 32.7392 39.0815L25.0306 46.8699L21.0825 47.4981C20.2204 47.6358 19.5501 48.3293 19.4342 49.2034L18.9802 52.6039L15.6243 53.0627C14.7499 53.183 14.0608 53.8752 13.9365 54.7579L13.3937 58.6172L12.5448 59.4748L5.37912 58.2682L4.93496 55.7751C5.02524 55.7316 5.10844 55.6744 5.18172 55.6056L15.6934 45.035C16.0288 44.6393 16.0062 44.0495 15.6417 43.6812C15.2771 43.3128 14.6933 43.29 14.3017 43.6289L4.58951 53.4316L4.1947 51.0183L24.3693 30.625C25.3524 29.6469 25.5366 28.1124 24.8134 26.9253L18.23 15.876C17.9553 15.4096 18.1 14.8069 18.5558 14.5197L37.9111 2.29368C38.3013 2.04578 38.8093 2.10374 39.135 2.43329L60.6421 24.1629C60.9682 24.492 61.0256 25.0053 60.7802 25.3995L60.7901 25.3995Z" id="Shape" fill="#8D6C9F" fill-rule="evenodd" stroke="none" />
      <path d="M41.3756 10.3413C40.7258 9.68729 39.7158 9.57161 38.9376 10.062L35.5324 12.2161C34.6066 12.795 34.3196 14.022 34.8909 14.9584L39.7569 22.6072C39.986 22.9671 40.2889 23.2732 40.6452 23.5047L48.2156 28.421C48.5333 28.6284 48.9033 28.7392 49.2815 28.7402C49.4259 28.7563 49.5715 28.7563 49.7158 28.7402C50.2312 28.6242 50.6791 28.3046 50.9595 27.8526L53.1013 24.3922C53.5814 23.6083 53.4672 22.594 52.8249 21.939L41.3756 10.3413ZM49.2718 26.7857L41.7014 21.8694C41.5826 21.7922 41.4816 21.6902 41.4052 21.5702L36.5195 13.9614L39.9445 11.7974L39.9445 11.7974L51.3938 23.3652L49.2718 26.7857ZM19.8784 37.9845L17.0851 40.8067C16.8035 41.0504 16.6808 41.4331 16.7675 41.7974C16.8542 42.1617 17.1358 42.4461 17.4963 42.5337C17.8569 42.6213 18.2356 42.4974 18.4768 42.2128L21.2701 39.3906C21.6055 38.995 21.5829 38.4052 21.2183 38.0368C20.8538 37.6685 20.27 37.6457 19.8784 37.9845L19.8784 37.9845Z" id="Shape" fill="#8D6C9F" fill-rule="evenodd" stroke="none" />
    </g>
  </g>
</svg>