<?xml version="1.0" encoding="utf-8"?>
<svg width="64px" height="64px" viewBox="0 0 64 64" version="1.1" xmlns:xlink="http://www.w3.org/1999/xlink" xmlns="http://www.w3.org/2000/svg">
  <defs>
    <path d="M0 0L63.8006 0L63.8006 63.8227L0 63.8227L0 0Z" id="path_1" />
    <clipPath id="mask_1">
      <use xlink:href="#path_1" />
    </clipPath>
  </defs>
  <g id="Puzzle-icon">
    <path d="M0 0L63.8006 0L63.8006 63.8227L0 63.8227L0 0Z" id="Background" fill="none" fill-rule="evenodd" stroke="none" />
    <g clip-path="url(#mask_1)">
      <path d="M15.2025 20.0543L27.3346 22.0587L37.5526 22.9363L46.6043 22.0587L59.6436 19.4858L58.4872 15.3773L51.6885 16.2548L43.9427 17.1224L41.6997 17.0327L41.6997 15.3773L43.7832 12.7944L43.9427 4.90633L40.7227 1.99442L36.0573 0.997192L31.5713 2.74234L29.8268 5.90356L29.3283 10.2216L30.5744 14.1307L31.5713 15.9556L31.8206 16.8731L27.3744 17.0825L21.5128 15.5867L16.3688 15.457L14.9931 17.9501L15.2025 20.0543L15.2025 20.0543Z" id="Shape" fill="#97E0BB" fill-rule="evenodd" stroke="none" />
      <path d="M58.3477 42.6615C55.1998 45.6803 50.2117 45.61 47.15 42.5038C44.0882 39.3976 44.0882 34.4074 47.15 31.3011C50.2117 28.1949 55.1997 28.1247 58.3477 31.1434C58.8559 31.6349 59.5349 31.9102 60.2418 31.9113L60.2418 31.9113C60.5206 31.9122 60.787 31.7963 60.9764 31.5916C61.1659 31.387 61.2609 31.1123 61.2386 30.8343C61.0502 28.0828 60.7174 25.3433 60.2417 22.6269L59.2449 16.923C59.1522 16.3803 58.8395 15.9002 58.3808 15.5961C57.922 15.2921 57.3581 15.1912 56.8224 15.3174L51.1203 16.3147C48.4048 16.7905 45.6663 17.1233 42.9159 17.3119C42.638 17.3342 42.3635 17.2391 42.1589 17.0496C41.9543 16.8601 41.8384 16.5936 41.8393 16.3147L41.8393 16.3147C41.8426 15.603 42.1213 14.9204 42.6169 14.4099C45.6346 11.2609 45.5644 6.27113 42.4592 3.20834C39.3541 0.145557 34.3656 0.145559 31.2604 3.20835C28.1553 6.27113 28.0851 11.2609 31.1028 14.4099C31.5941 14.9183 31.8693 15.5975 31.8704 16.3047L31.8704 16.3047C31.8713 16.5836 31.7554 16.8501 31.5508 17.0396C31.3463 17.2291 31.0717 17.3242 30.7938 17.3019C28.0434 17.1134 25.3049 16.7805 22.5894 16.3047L17.7545 15.4271C17.1092 15.3079 16.4466 15.5139 15.9826 15.9781C15.5186 16.4423 15.3126 17.1051 15.4318 17.7507L16.309 22.5872C16.7847 25.3036 17.1175 28.0431 17.3059 30.7944C17.3283 31.0724 17.2332 31.3471 17.0437 31.5517C16.8543 31.7564 16.5879 31.8723 16.309 31.8714L16.309 31.8714C15.5977 31.8681 14.9153 31.5894 14.405 31.0936C11.2571 28.0748 6.26904 28.145 3.2073 31.2512C0.145553 34.3574 0.14554 39.3477 3.20726 42.4539C6.26899 45.5602 11.257 45.6304 14.405 42.6116C14.9132 42.1201 15.5922 41.8449 16.2991 41.8437L16.2991 41.8437C16.5779 41.8428 16.8443 41.9588 17.0338 42.1634C17.2232 42.3681 17.3183 42.6427 17.296 42.9208C17.1075 45.672 16.7748 48.4115 16.2991 51.1279L15.3022 56.4432C15.1946 57.031 15.3561 57.6361 15.7423 58.0919C16.1285 58.5478 16.6987 58.8064 17.296 58.7967L57.1514 58.7967C58.1264 58.8126 58.9698 58.1207 59.1452 57.1612L60.2418 51.1778C60.7174 48.4614 61.0502 45.722 61.2386 42.9707C61.261 42.6926 61.1659 42.418 60.9764 42.2133C60.787 42.0087 60.5206 41.8927 60.2418 41.8936L60.2418 41.8936C59.5353 41.8968 58.8571 42.1717 58.3477 42.6615L58.3477 42.6615Z" id="Shape" fill="#72CAAF" fill-rule="evenodd" stroke="none" />
      <path d="M58.8162 58.8367L16.1695 58.8367C15.8666 58.8428 15.5774 58.7109 15.3834 58.4781C15.1895 58.2453 15.1119 57.9369 15.1726 57.64L15.4517 56.2538C15.7333 54.8494 16.9706 53.8416 18.4025 53.8505L56.1645 53.8505C57.0605 53.8509 57.9091 54.2532 58.4768 54.9467C59.0445 55.6402 59.2715 56.5517 59.0953 57.4306L58.8162 58.8367Z" id="Shape" fill="#5DBC9D" fill-rule="evenodd" stroke="none" />
      <path d="M60.2417 40.8864C59.2733 40.8887 58.3438 41.2678 57.6498 41.9435C54.8949 44.5834 50.5314 44.5208 47.8532 41.8031C45.175 39.0853 45.175 34.7198 47.8531 32.002C50.5313 29.2842 54.8949 29.2216 57.6498 31.8615C58.3501 32.5139 59.2749 32.8711 60.2318 32.8587C60.7875 32.8603 61.3187 32.6298 61.6972 32.2227C62.0757 31.8157 62.2672 31.2691 62.2255 30.7147C62.0227 27.926 61.6733 25.1499 61.1788 22.3979L60.1819 16.6936C60.0412 15.9117 59.5954 15.2179 58.9427 14.7652C58.2901 14.3124 57.4842 14.138 56.7028 14.2803L51.0006 15.2776C48.3189 15.7549 45.6134 16.0878 42.896 16.2748C42.8998 15.8232 43.0785 15.3907 43.3944 15.0681C46.7868 11.5247 46.7059 5.91281 43.2129 2.46857C39.7199 -0.975678 34.1094 -0.975689 30.6164 2.46854C27.1234 5.91277 27.0425 11.5246 30.4349 15.0681C30.7723 15.4236 30.9427 15.9058 30.9034 16.3945C28.1863 16.2036 25.4811 15.8708 22.7987 15.3972L17.9439 14.4898C16.9849 14.3228 16.0047 14.6331 15.3164 15.3217C14.6281 16.0102 14.3178 16.9908 14.4847 17.9501L15.362 22.7867C15.8392 25.4694 16.172 28.1757 16.3589 30.8941C15.9075 30.8903 15.4751 30.7116 15.1526 30.3956C11.6104 27.002 6.00048 27.0829 2.55743 30.5771C-0.885626 34.0713 -0.885641 39.6838 2.5574 43.178C6.00043 46.6722 11.6103 46.7531 15.1526 43.3596C15.482 43.0441 15.9229 42.872 16.3788 42.8809L16.3788 42.8809C16.1881 45.5989 15.8553 48.3051 15.3819 50.9884L14.385 56.3036C14.2236 57.1853 14.4659 58.0929 15.0452 58.7767C15.6245 59.4605 16.4798 59.8485 17.3757 59.8338L57.1514 59.8338C58.6138 59.8577 59.879 58.8199 60.1421 57.3806L61.2386 51.3972C61.7331 48.6452 62.0825 45.8692 62.2853 43.0805C62.3271 42.5261 62.1356 41.9794 61.7571 41.5724C61.3785 41.1653 60.8474 40.9347 60.2916 40.9363L60.2417 40.8864ZM59.2449 50.9884L58.1483 56.9718C58.0606 57.4515 57.6389 57.7975 57.1514 57.7895L17.3458 57.7895C17.0472 57.7944 16.7621 57.6651 16.569 57.4371C16.3759 57.2092 16.2951 56.9067 16.3489 56.6128L17.3458 51.2975C17.8403 48.5455 18.1897 45.7694 18.3925 42.9807C18.4336 42.4271 18.2421 41.8814 17.8642 41.4748C17.4727 41.0802 16.9343 40.8669 16.3788 40.8865C15.422 40.8741 14.4972 41.2313 13.7969 41.8837C11.042 44.5236 6.6784 44.461 4.00022 41.7432C1.32204 39.0255 1.32203 34.6599 4.00019 31.9422C6.67836 29.2244 11.0419 29.1618 13.7969 31.8017C14.4803 32.4933 15.4068 32.8905 16.3788 32.9086C16.9346 32.9102 17.4657 32.6796 17.8443 32.2726C18.2228 31.8655 18.4143 31.3189 18.3726 30.7646C18.1698 27.9759 17.8204 25.1997 17.3259 22.4477L16.4486 17.6111C16.3895 17.2873 16.494 16.9552 16.7277 16.7236C16.9593 16.4897 17.2913 16.3852 17.615 16.4443L22.4499 17.3219C25.2009 17.8166 27.976 18.1661 30.7637 18.369C31.3179 18.4107 31.8644 18.2192 32.2713 17.8405C32.6783 17.4619 32.9087 16.9305 32.9072 16.3745C32.9195 15.4173 32.5624 14.4922 31.9103 13.7917C29.2713 11.0358 29.3339 6.67073 32.0507 3.99163C34.7675 1.31253 39.1315 1.31252 41.8484 3.99162C44.5652 6.67072 44.6278 11.0358 41.9888 13.7917C41.2914 14.4762 40.8905 15.4073 40.8723 16.3845C40.8707 16.9404 41.1012 17.4718 41.5081 17.8504C41.915 18.2291 42.4614 18.4207 43.0156 18.379C45.8033 18.1761 48.5785 17.8266 51.3296 17.3319L57.0318 16.3346C57.2923 16.2863 57.5613 16.3437 57.7794 16.4942C57.9981 16.643 58.1487 16.8726 58.1981 17.1324L59.195 22.8366C59.6728 25.5192 60.0056 28.2256 60.1919 30.9441C59.7417 30.944 59.3091 30.7687 58.9857 30.4554C57.2363 28.7842 54.8865 27.8905 52.4691 27.9768C50.0517 28.0632 47.7715 29.1224 46.1458 30.9142C42.9504 34.5097 43.1574 39.9862 46.6151 43.3301C50.0729 46.674 55.5513 46.6958 59.0355 43.3795L59.0355 43.3795C59.3574 43.0626 59.7901 42.8837 60.2417 42.8809L60.2417 42.8809C60.0477 45.599 59.7116 48.3052 59.2349 50.9882L59.2449 50.9884Z" id="Shape" fill="#8D6C9F" fill-rule="evenodd" stroke="none" />
      <path d="M20.9345 51.8561C20.384 51.8561 19.9377 52.3026 19.9377 52.8533L19.9377 54.8478C19.9377 55.3985 20.384 55.845 20.9345 55.845C21.4851 55.845 21.9314 55.3985 21.9314 54.8478L21.9314 52.8533C21.9314 52.3026 21.4851 51.8561 20.9345 51.8561L20.9345 51.8561ZM25.919 51.8561C25.3684 51.8561 24.9221 52.3026 24.9221 52.8533L24.9221 54.8478C24.9221 55.3985 25.3684 55.845 25.919 55.845C26.4695 55.845 26.9159 55.3985 26.9159 54.8478L26.9159 52.8533C26.9159 52.3026 26.4695 51.8561 25.919 51.8561L25.919 51.8561ZM30.9034 51.8561C30.3528 51.8561 29.9065 52.3026 29.9065 52.8533L29.9065 54.8478C29.9065 55.3985 30.3528 55.845 30.9034 55.845C31.4539 55.845 31.9003 55.3985 31.9003 54.8478L31.9003 52.8533C31.9003 52.3026 31.4539 51.8561 30.9034 51.8561L30.9034 51.8561ZM35.8878 51.8561C35.3372 51.8561 34.8909 52.3026 34.8909 52.8533L34.8909 54.8478C34.8909 55.3985 35.3372 55.845 35.8878 55.845C36.4384 55.845 36.8847 55.3985 36.8847 54.8478L36.8847 52.8533C36.8847 52.3026 36.4384 51.8561 35.8878 51.8561L35.8878 51.8561ZM40.8722 51.8561C40.3217 51.8561 39.8754 52.3026 39.8754 52.8533L39.8754 54.8478C39.8754 55.3985 40.3217 55.845 40.8722 55.845C41.4228 55.845 41.8691 55.3985 41.8691 54.8478L41.8691 52.8533C41.8691 52.3026 41.4228 51.8561 40.8722 51.8561L40.8722 51.8561ZM45.8567 51.8561C45.3061 51.8561 44.8598 52.3026 44.8598 52.8533L44.8598 54.8478C44.8598 55.3985 45.3061 55.845 45.8567 55.845C46.4072 55.845 46.8535 55.3985 46.8535 54.8478L46.8535 52.8533C46.8535 52.3026 46.4072 51.8561 45.8567 51.8561L45.8567 51.8561ZM50.8411 51.8561C50.2905 51.8561 49.8442 52.3026 49.8442 52.8533L49.8442 54.8478C49.8442 55.3985 50.2905 55.845 50.8411 55.845C51.3917 55.845 51.838 55.3985 51.838 54.8478L51.838 52.8533C51.838 52.3026 51.3917 51.8561 50.8411 51.8561L50.8411 51.8561ZM55.8255 51.8561C55.275 51.8561 54.8286 52.3026 54.8286 52.8533L54.8286 54.8478C54.8286 55.3985 55.275 55.845 55.8255 55.845C56.3761 55.845 56.8224 55.3985 56.8224 54.8478L56.8224 52.8533C56.8224 52.3026 56.3761 51.8561 55.8255 51.8561L55.8255 51.8561ZM52.6853 22.0589L52.8648 22.0589L56.005 21.4905C56.5554 21.3912 56.9212 20.8644 56.8221 20.3137C56.7229 19.7631 56.1965 19.397 55.646 19.496L52.5059 20.0644C51.9553 20.114 51.5492 20.6006 51.5987 21.1514C51.6483 21.7022 52.1348 22.1084 52.6853 22.0589L52.6853 22.0589ZM48.7476 22.7469C49.2982 22.667 49.6798 22.1558 49.6 21.6051C49.5201 21.0543 49.0091 20.6726 48.4585 20.7524C39.9401 22.0196 31.2713 21.8781 22.7987 20.3336L20.0872 19.845C19.731 19.7807 19.3676 19.9115 19.1339 20.188C18.9002 20.4645 18.8318 20.8447 18.9544 21.1853C19.077 21.526 19.372 21.7754 19.7282 21.8394L22.4399 22.3281C27.2061 23.1932 32.0406 23.6271 36.8848 23.6245C40.8553 23.6238 44.8203 23.3304 48.7477 22.7469L48.7476 22.7469Z" id="Shape" fill="#8D6C9F" fill-rule="evenodd" stroke="none" />
    </g>
  </g>
</svg>