<?xml version="1.0" encoding="utf-8"?>
<svg width="291px" height="75px" viewBox="0 0 291 75" version="1.1" xmlns:xlink="http://www.w3.org/1999/xlink" xmlns="http://www.w3.org/2000/svg">
  <defs>
    <linearGradient x1="0.5000007" y1="-0.08330011" x2="0.5000007" y2="1.0844002" id="gradient_1">
      <stop offset="0" stop-color="#6DC7FF" />
      <stop offset="1" stop-color="#E6ABFF" />
    </linearGradient>
    <linearGradient x1="0.5" y1="-0.023809537" x2="0.5" y2="1.0800714" id="gradient_2">
      <stop offset="0" stop-color="#1A6DFF" />
      <stop offset="1" stop-color="#C822FF" />
    </linearGradient>
    <linearGradient x1="0.5" y1="-0.3125" x2="0.5" y2="2.5851874" id="gradient_3">
      <stop offset="0" stop-color="#1A6DFF" />
      <stop offset="1" stop-color="#C822FF" />
    </linearGradient>
    <path d="M0 0L74.5828 0L74.5828 75L0 75L0 0Z" id="path_1" />
    <clipPath id="mask_1">
      <use xlink:href="#path_1" />
    </clipPath>
  </defs>
  <g id="Logo">
    <g id="Share-icon">
      <path d="M0 0L74.5828 0L74.5828 75L0 75L0 0Z" id="Background" fill="none" fill-rule="evenodd" stroke="none" />
      <g clip-path="url(#mask_1)">
        <path d="M32.63 45.7031C29.4119 45.7031 26.8032 48.3264 26.8032 51.5625C26.8032 54.7985 29.4119 57.4219 32.6299 57.4219C35.848 57.4219 38.4567 54.7986 38.4567 51.5625C38.4568 48.3265 35.848 45.7032 32.63 45.7031L32.63 45.7031Z" id="Shape" fill="url(#gradient_1)" fill-rule="evenodd" stroke="none" />
        <path d="M57.1025 12.8906C49.3913 12.8906 43.1182 19.1988 43.1182 26.9531C43.1182 30.409 44.3698 33.573 46.4336 36.0246L39.1688 43.3301C37.3742 41.8852 35.1029 41.0156 32.63 41.0156C30.1571 41.0156 27.8858 41.8852 26.0912 43.3301L20.1747 37.3805C21.403 35.7914 22.1418 33.8039 22.1418 31.6406C22.1418 26.4715 17.9593 22.2656 12.8189 22.2656C7.67856 22.2656 3.49609 26.4715 3.49609 31.6406C3.49609 36.8098 7.67856 41.0156 12.8189 41.0156C14.9702 41.0156 16.9466 40.2727 18.5257 39.0375L24.4422 44.9871C23.0065 46.7918 22.1418 49.0758 22.1418 51.5625C22.1418 57.3785 26.8463 62.1094 32.63 62.1094C38.4137 62.1094 43.1182 57.3785 43.1182 51.5625C43.1182 49.0758 42.2535 46.7918 40.8166 44.9871L48.0815 37.6816C50.5194 39.757 53.6658 41.0156 57.1025 41.0156C64.8136 41.0156 71.0868 34.7074 71.0868 26.9531C71.0868 19.1988 64.8136 12.8906 57.1025 12.8906L57.1025 12.8906ZM12.8189 38.6719C8.96276 38.6719 5.82678 35.5184 5.82678 31.6406C5.82678 27.7629 8.96276 24.6094 12.8189 24.6094C16.6751 24.6094 19.8111 27.7629 19.8111 31.6406C19.8111 35.5184 16.6751 38.6719 12.8189 38.6719L12.8189 38.6719ZM32.63 59.7656C28.1329 59.7656 24.4725 56.0848 24.4725 51.5625C24.4725 47.0402 28.1329 43.3594 32.63 43.3594C37.1271 43.3594 40.7875 47.0402 40.7875 51.5625C40.7875 56.0848 37.1271 59.7656 32.63 59.7656L32.63 59.7656ZM57.1025 38.6719C50.6767 38.6719 45.4489 33.4148 45.4489 26.9531C45.4489 20.4914 50.6767 15.2344 57.1025 15.2344C63.5283 15.2344 68.7561 20.4914 68.7561 26.9531C68.7561 33.4148 63.5283 38.6719 57.1025 38.6719L57.1025 38.6719Z" id="Shape" fill="url(#gradient_2)" fill-rule="evenodd" stroke="none" />
        <path d="M57.1025 17.5781C51.9621 17.5781 47.7796 21.784 47.7796 26.9531C47.7796 32.1223 51.9621 36.3281 57.1025 36.3281C62.2428 36.3281 66.4253 32.1223 66.4253 26.9531C66.4253 21.784 62.2428 17.5781 57.1025 17.5781L57.1025 17.5781ZM57.1025 33.9844C53.2463 33.9844 50.1103 30.8309 50.1103 26.9531C50.1103 23.0754 53.2463 19.9219 57.1025 19.9219C60.9586 19.9219 64.0946 23.0754 64.0946 26.9531C64.0946 30.8309 60.9586 33.9844 57.1025 33.9844L57.1025 33.9844Z" id="Shape" fill="url(#gradient_3)" fill-rule="evenodd" stroke="none" />
      </g>
    </g>
    <g id="Petre-Tiberiu" fill="#3A3A3A" transform="translate(84.58957 12.5)">
      <path d="M125.712 23.092Q127.476 15.496 127.476 12.868Q127.476 11.716 127.26 11.356Q124.236 11.356 120.744 12.328Q120.816 13.048 120.816 13.84Q120.816 16.936 118.71 25.576Q116.604 34.216 116.604 36.844Q116.604 37.96 116.784 38.068Q119.268 38.068 122.868 37.204Q124.704 38.212 126.576 38.212Q129.708 38.212 131.85 35.404Q133.992 32.596 133.992 28.69Q133.992 24.784 132.66 23.308Q131.328 21.832 129.564 21.832Q127.8 21.832 125.712 23.092ZM9.936 28.276Q10.404 28.312 11.412 28.312Q16.884 28.312 19.674 25.504Q22.464 22.696 22.464 18.34Q22.464 15.532 20.52 13.876Q18.576 12.22 14.544 12.22Q11.808 12.22 8.55 12.526Q5.292 12.832 3.924 13.084L3.78 13.948L4.176 14.452Q4.608 14.92 5.022 15.712Q5.436 16.504 5.436 17.116Q5.436 19.096 3.456 27.358Q1.476 35.62 1.476 37.888Q2.304 37.996 3.204 37.996Q6.48 37.996 8.496 37.06Q8.496 34.828 9.936 28.276ZM89.892 38.032L90.72 38.032Q95.4 38.032 96.984 37.096Q96.984 33.244 98.73 25.036Q100.476 16.828 100.584 15.676Q101.628 15.712 103.014 15.928Q104.4 16.144 105.048 16.144Q107.172 16.144 107.172 14.452Q107.172 13.66 107.028 12.508Q105.228 12.58 104.4 12.58L93.06 12.22Q88.776 12.22 87.012 12.832Q87.264 15.136 88.308 16.324Q90.324 15.352 93.708 15.28Q93.672 16.072 93.474 17.638Q93.276 19.204 91.584 27.124Q89.892 35.044 89.892 38.032ZM111.906 19.204Q110.268 19.204 109.35 18.34Q108.432 17.476 108.432 16.126Q108.432 14.776 109.566 13.858Q110.7 12.94 112.32 12.94Q113.94 12.94 114.84 13.696Q115.74 14.452 115.74 15.82Q115.74 17.188 114.642 18.196Q113.544 19.204 111.906 19.204ZM171.234 19.204Q169.596 19.204 168.678 18.34Q167.76 17.476 167.76 16.126Q167.76 14.776 168.894 13.858Q170.028 12.94 171.648 12.94Q173.268 12.94 174.168 13.696Q175.068 14.452 175.068 15.82Q175.068 17.188 173.97 18.196Q172.872 19.204 171.234 19.204ZM14.454 22.912Q13.356 25.216 11.34 25.216L10.656 25.216Q12.672 16.288 12.672 14.884L13.824 14.74Q15.552 14.74 15.552 17.368Q15.552 20.608 14.454 22.912ZM50.076 25.036L46.98 24.784Q45.54 31.228 45.414 32.272Q45.288 33.316 45.288 33.982Q45.288 34.648 45.72 34.648Q46.224 34.648 47.628 34L48.492 35.728Q47.34 36.772 45.576 37.492Q43.812 38.212 42.174 38.212Q40.536 38.212 39.564 37.366Q38.592 36.52 38.592 34.972Q38.592 33.424 39.492 30.004Q40.392 26.584 40.68 24.928Q39.816 25 38.124 25.18Q37.98 24.424 37.98 23.758Q37.98 23.092 38.16 22.264L41.04 22.264Q41.076 21.796 41.076 19.132L41.004 17.656Q44.496 16.504 47.664 16.504Q47.916 17.08 47.916 18.502Q47.916 19.924 47.448 22.264L50.688 22.264Q50.688 23.74 50.076 25.036ZM24.426 24.316Q21.708 26.8 21.708 31.264Q21.708 34.648 23.382 36.43Q25.056 38.212 28.116 38.212Q29.484 38.212 30.852 37.834Q32.22 37.456 33.102 36.988Q33.984 36.52 34.794 35.89Q35.604 35.26 35.82 35.044L36.216 34.648L35.064 33.1L34.452 33.46Q33.84 33.856 32.796 34.234Q31.752 34.612 30.888 34.612Q28.908 34.612 28.512 32.236L29.412 32.128Q31.428 31.876 34.164 30.652Q35.46 30.04 36.36 28.888Q37.26 27.736 37.26 26.26Q37.26 24.244 35.586 23.038Q33.912 21.832 31.14 21.832Q27.144 21.832 24.426 24.316ZM50.328 37.996L50.616 37.996Q55.332 37.996 56.916 37.384L56.88 36.304Q56.88 34.504 57.42 31.84Q57.6 30.832 57.906 29.284Q58.212 27.736 58.32 27.088Q59.148 26.44 59.454 26.44Q59.76 26.44 60.21 27.232Q60.66 28.024 60.696 28.024Q62.064 27.88 63.288 27.052Q63.72 26.728 64.116 26.332Q64.512 25.936 64.62 25.774Q64.728 25.612 64.8 25.54Q64.584 21.832 62.388 21.832Q60.696 21.832 58.5 24.28Q58.392 23.056 57.924 22.156Q52.92 22.156 50.76 22.84L50.688 23.38L51.012 23.704Q51.336 24.028 51.66 24.658Q51.984 25.288 51.984 25.882Q51.984 26.476 51.102 30.922Q50.22 35.368 50.22 36.43Q50.22 37.492 50.328 37.996ZM63.684 31.264Q63.684 26.8 66.402 24.316Q69.12 21.832 73.116 21.832Q75.888 21.832 77.562 23.038Q79.236 24.244 79.236 26.26Q79.236 27.736 78.336 28.888Q77.436 30.04 76.14 30.652Q73.404 31.876 71.388 32.128L70.488 32.236Q70.884 34.612 72.864 34.612Q73.728 34.612 74.772 34.234Q75.816 33.856 76.428 33.46L77.04 33.1L78.192 34.648L77.796 35.044Q77.58 35.26 76.77 35.89Q75.96 36.52 75.078 36.988Q74.196 37.456 72.828 37.834Q71.46 38.212 70.092 38.212Q67.032 38.212 65.358 36.43Q63.684 34.648 63.684 31.264ZM135.144 31.264Q135.144 26.8 137.862 24.316Q140.58 21.832 144.576 21.832Q147.348 21.832 149.022 23.038Q150.696 24.244 150.696 26.26Q150.696 27.736 149.796 28.888Q148.896 30.04 147.6 30.652Q144.864 31.876 142.848 32.128L141.948 32.236Q142.344 34.612 144.324 34.612Q145.188 34.612 146.232 34.234Q147.276 33.856 147.888 33.46L148.5 33.1L149.652 34.648L149.256 35.044Q149.04 35.26 148.23 35.89Q147.42 36.52 146.538 36.988Q145.656 37.456 144.288 37.834Q142.92 38.212 141.552 38.212Q138.492 38.212 136.818 36.43Q135.144 34.648 135.144 31.264ZM151.596 37.996L151.884 37.996Q156.6 37.996 158.184 37.384L158.148 36.304Q158.148 34.504 158.688 31.84Q158.868 30.832 159.174 29.284Q159.48 27.736 159.588 27.088Q160.416 26.44 160.722 26.44Q161.028 26.44 161.478 27.232Q161.928 28.024 161.964 28.024Q163.332 27.88 164.556 27.052Q164.988 26.728 165.384 26.332Q165.78 25.936 165.888 25.774Q165.996 25.612 166.068 25.54Q165.852 21.832 163.656 21.832Q161.964 21.832 159.768 24.28Q159.66 23.056 159.192 22.156Q154.188 22.156 152.028 22.84L151.956 23.38L152.28 23.704Q152.604 24.028 152.928 24.658Q153.252 25.288 153.252 25.882Q153.252 26.476 152.37 30.922Q151.488 35.368 151.488 36.43Q151.488 37.492 151.596 37.996ZM114.588 24.262Q114.588 25.864 113.688 29.194Q112.788 32.524 112.788 33.532Q112.788 34.4052 113.085 34.522Q113.131 34.54 113.184 34.54Q113.58 34.54 114.624 34.18L114.948 34.036L115.596 35.836Q114.372 36.772 112.554 37.492Q110.736 38.212 109.26 38.212Q107.784 38.212 106.938 37.384Q106.092 36.556 106.092 34.99Q106.092 33.424 106.974 30.202Q107.856 26.98 107.856 26.116Q107.856 24.784 106.92 23.596L106.632 23.2L106.74 22.588Q108.612 22.012 114.012 22.012Q114.588 22.66 114.588 24.262ZM173.916 24.262Q173.916 25.864 173.016 29.194Q172.116 32.524 172.116 33.532Q172.116 34.4052 172.413 34.522Q172.459 34.54 172.512 34.54Q172.908 34.54 173.952 34.18L174.276 34.036L174.924 35.836Q173.7 36.772 171.882 37.492Q170.064 38.212 168.588 38.212Q167.112 38.212 166.266 37.384Q165.42 36.556 165.42 34.99Q165.42 33.424 166.302 30.202Q167.184 26.98 167.184 26.116Q167.184 24.784 166.248 23.596L165.96 23.2L166.068 22.588Q167.94 22.012 173.34 22.012Q173.916 22.66 173.916 24.262ZM177.246 29.896Q176.292 33.352 176.292 34.864Q176.292 38.212 179.712 38.212Q182.448 38.212 185.436 36.412Q185.976 38.212 188.208 38.212Q189.72 38.212 191.7 37.456Q193.68 36.7 194.724 35.872L194.076 34.072L192.312 34.54Q192.255 34.54 192.209 34.5181Q191.991 34.4144 192.006 33.82Q192.024 33.1 192.978 28.384Q193.932 23.668 193.932 22.048L192.96 22.048Q188.964 22.048 187.308 22.768Q187.308 25.468 186.048 30.904Q185.508 33.352 185.4 33.928Q184.464 34.396 183.852 34.396Q182.952 34.396 182.952 33.46Q182.952 32.776 183.942 29.068Q184.932 25.36 184.932 24.028Q184.932 22.696 184.644 22.084Q180.252 22.084 176.976 22.804L176.904 23.344Q178.2 24.856 178.2 25.648Q178.2 26.44 177.246 29.896ZM30.456 28.15Q29.412 29.716 28.368 29.86Q28.476 27.268 29.232 25.864Q29.988 24.46 30.888 24.46Q31.5 24.46 31.5 25.522Q31.5 26.584 30.456 28.15ZM70.344 29.86Q71.388 29.716 72.432 28.15Q73.476 26.584 73.476 25.522Q73.476 24.46 72.864 24.46Q71.964 24.46 71.208 25.864Q70.452 27.268 70.344 29.86ZM141.804 29.86Q142.848 29.716 143.892 28.15Q144.936 26.584 144.936 25.522Q144.936 24.46 144.324 24.46Q143.424 24.46 142.668 25.864Q141.912 27.268 141.804 29.86ZM125.064 25.828Q125.856 25.432 126.36 25.432Q127.224 25.432 127.224 27.646Q127.224 29.86 126.45 32.488Q125.676 35.116 124.452 35.116Q123.912 35.116 123.264 34.792Q123.516 32.488 125.064 25.828Z" />
    </g>
  </g>
</svg>