<?xml version="1.0" encoding="utf-8"?>
<svg width="66px" height="64px" viewBox="0 0 66 64" version="1.1" xmlns:xlink="http://www.w3.org/1999/xlink" xmlns="http://www.w3.org/2000/svg">
  <defs>
    <path d="M0 0L65.525 0L65.525 63.8227L0 63.8227L0 0Z" id="path_1" />
    <clipPath id="mask_1">
      <use xlink:href="#path_1" />
    </clipPath>
  </defs>
  <g id="Home-icon">
    <path d="M0 0L65.525 0L65.525 63.8227L0 63.8227L0 0Z" id="Background" fill="none" fill-rule="evenodd" stroke="none" />
    <g clip-path="url(#mask_1)">
      <path d="M56.3105 32.9086L31.7387 12.964L7.16681 32.9086L7.16681 56.8421L56.3105 56.8421L56.3105 32.9086Z" id="Shape" fill="#FAEFDE" fill-rule="evenodd" stroke="none" />
      <path d="M31.7387 12.964L7.16681 32.9086L7.16681 34.6039C7.16681 35.7008 8.08825 36.5983 9.21446 36.5983C9.72638 36.5983 10.1359 36.3989 10.5454 36.0997L31.1244 19.446C31.5339 19.1468 32.0458 19.1468 32.4554 19.446L53.0343 36.0997C53.8534 36.7978 55.1843 36.6981 55.901 35.8006C56.2082 35.4017 56.4129 35.0028 56.4129 34.5042L56.4129 32.9086L31.7387 12.964L31.7387 12.964Z" id="Shape" fill="#EFD8BE" fill-rule="evenodd" stroke="none" />
      <path d="M7.16681 46.8699L56.3105 46.8699L56.3105 56.8422L7.16681 56.8422L7.16681 46.8699Z" id="Shape" fill="#F9DD8F" fill-rule="evenodd" stroke="none" />
      <path d="M32.3529 13.4627L58.6653 34.5042C59.0748 34.8034 59.7915 34.8034 60.0987 34.4045C60.2011 34.2051 60.3034 34.0056 60.3034 33.8062L60.3034 30.9142C60.3034 30.3159 59.9963 29.7175 59.5868 29.4184L33.0696 7.97793C32.3529 7.37959 31.2267 7.37959 30.51 7.97793L3.89053 29.3187C3.37862 29.7175 3.07147 30.2162 3.07147 30.9142L3.07147 33.8062C3.07147 34.4045 3.58339 34.8034 4.0953 34.8034C4.30007 34.8034 4.50483 34.7037 4.7096 34.604L31.022 13.5624C31.4315 13.1635 32.0458 13.1635 32.3529 13.4627L32.3529 13.4627Z" id="Shape" fill="#CDA1A7" fill-rule="evenodd" stroke="none" />
      <path d="M16.3812 49.8615C15.767 49.8615 15.3574 50.2603 15.3574 50.8587L15.3574 52.8531C15.3574 53.4515 15.767 53.8504 16.3812 53.8504C16.9955 53.8504 17.4051 53.4515 17.4051 52.8531L17.4051 50.8587C17.4051 50.2603 16.9955 49.8615 16.3812 49.8615L16.3812 49.8615ZM11.2621 49.8615C10.6478 49.8615 10.2383 50.2603 10.2383 50.8587L10.2383 52.8531C10.2383 53.4515 10.6478 53.8504 11.2621 53.8504C11.8764 53.8504 12.2859 53.4515 12.2859 52.8531L12.2859 50.8587C12.2859 50.2603 11.8764 49.8615 11.2621 49.8615L11.2621 49.8615ZM47.096 49.8615C46.4817 49.8615 46.0722 50.2603 46.0722 50.8587L46.0722 52.8531C46.0722 53.4515 46.4817 53.8504 47.096 53.8504C47.7103 53.8504 48.1199 53.4515 48.1199 52.8531L48.1199 50.8587C48.1199 50.2603 47.7103 49.8615 47.096 49.8615L47.096 49.8615ZM52.2152 49.8615C51.6009 49.8615 51.1913 50.2603 51.1913 50.8587L51.1913 52.8531C51.1913 53.4515 51.6009 53.8504 52.2152 53.8504C52.8295 53.8504 53.239 53.4515 53.239 52.8531L53.239 50.8587C53.239 50.2603 52.8295 49.8615 52.2152 49.8615L52.2152 49.8615Z" id="Shape" fill="#8D6C9F" fill-rule="evenodd" stroke="none" />
      <path d="M31.7387 19.9446C29.4769 19.9446 27.6434 21.7305 27.6434 23.9335C27.6434 26.1365 29.4769 27.9224 31.7387 27.9224C34.0004 27.9224 35.834 26.1365 35.834 23.9335C35.834 21.7305 34.0005 19.9446 31.7387 19.9446L31.7387 19.9446Z" id="Shape" fill="#BBDEF9" fill-rule="evenodd" stroke="none" />
      <path d="M31.7386 18.9474C28.8719 18.9474 26.6195 21.1413 26.6195 23.9335C26.6195 26.7258 28.8719 28.9197 31.7386 28.9197C34.6054 28.9197 36.8578 26.7258 36.8578 23.9335C36.8578 21.1413 34.6054 18.9474 31.7386 18.9474L31.7386 18.9474ZM31.7387 27.1247C29.8958 27.1247 28.4624 25.7286 28.4624 23.9336C28.4624 22.1386 29.8958 20.7424 31.7387 20.7424C33.5815 20.7424 35.0149 22.1386 35.0149 23.9336L35.0149 23.9336C35.0149 25.7286 33.5815 27.1247 31.7387 27.1247L31.7387 27.1247Z" id="Shape" fill="#8D6C9F" fill-rule="evenodd" stroke="none" />
      <path d="M25.5957 36.8975L37.8816 36.8975L37.8816 56.8421L25.5957 56.8421L25.5957 36.8975Z" id="Shape" fill="#ED7899" fill-rule="evenodd" stroke="none" />
      <path d="M33.7863 44.8754C33.172 44.8754 32.7625 45.2743 32.7625 45.8726L32.7625 47.8671C32.7625 48.4654 33.172 48.8643 33.7863 48.8643C34.4006 48.8643 34.8102 48.4654 34.8102 47.8671L34.8102 45.8726C34.8102 45.2743 34.4006 44.8754 33.7863 44.8754L33.7863 44.8754Z" id="Shape" fill="#8D6C9F" fill-rule="evenodd" stroke="none" />
      <path d="M58.051 35.302C58.9725 36 60.2011 35.9003 60.9178 35.0028C61.2249 34.6039 61.4297 34.205 61.4297 33.7064L61.4297 30.9142C61.4297 30.0167 61.0201 29.1192 60.3035 28.6205L33.6839 7.27982C32.5577 6.38231 30.9196 6.38231 29.7934 7.27982L18.4289 16.3546L18.4289 13.0638C18.4289 12.4654 18.0194 12.0665 17.4051 12.0665C16.7908 12.0665 16.3813 12.4654 16.3813 13.0638L16.3813 18.0499L14.3336 19.6455L14.3336 9.07483C14.3336 8.47649 13.9241 8.0776 13.3098 8.0776C12.6955 8.0776 12.2859 8.47649 12.2859 9.07483L12.2859 21.0416C12.2859 21.1413 12.2859 21.1413 12.2859 21.241L3.17388 28.6205C2.4572 29.1192 2.04767 30.0167 2.04767 30.9142L2.04767 33.8061C2.04767 34.6039 2.4572 35.302 3.27626 35.6012C3.99294 35.9003 4.812 35.8006 5.4263 35.302L6.14298 34.7036L6.14298 55.8449L3.0715 55.8449C2.4572 55.8449 2.04767 56.2438 2.04767 56.8422C2.04767 57.4405 2.4572 57.8394 3.0715 57.8394L60.4058 57.8394C61.0201 57.8394 61.4297 57.4405 61.4297 56.8422C61.4297 56.2438 61.0201 55.8449 60.4058 55.8449L57.3344 55.8449L57.3344 34.7036L58.051 35.302L58.051 35.302ZM22.5242 55.8449L20.4765 55.8449L8.19061 55.8449L8.19061 47.8671L24.5719 47.8671L24.5719 55.8449L22.5242 55.8449L22.5242 55.8449ZM26.6195 55.8449L26.6195 37.8948L36.8578 37.8948L36.8578 55.8449L26.6195 55.8449L26.6195 55.8449ZM55.2867 55.8449L43.0008 55.8449L40.9531 55.8449L38.9055 55.8449L38.9055 47.8671L55.2867 47.8671L55.2867 55.8449L55.2867 55.8449ZM55.2867 37.8949L55.2867 45.8727L38.9054 45.8727L38.9054 37.8949C38.9054 36.7979 37.984 35.9004 36.8578 35.9004L26.6195 35.9004C25.4933 35.9004 24.5719 36.7979 24.5719 37.8949L24.5719 45.8727L8.19061 45.8727L8.19061 37.8949L8.19061 33.1081L31.7386 14.2605L55.2867 33.1081L55.2867 37.8949L55.2867 37.8949ZM33.0697 12.7646C32.353 12.1662 31.2268 12.1662 30.5101 12.7646L4.09534 33.8061L4.09534 30.9142C4.09534 30.615 4.19772 30.3158 4.50487 30.1164L31.1244 8.77565C31.5339 8.47648 32.0458 8.47648 32.4554 8.77565L59.0749 30.1164C59.2796 30.3158 59.4844 30.615 59.4844 30.9142L59.4844 33.8061L33.0697 12.7646L33.0697 12.7646Z" id="Shape" fill="#8D6C9F" fill-rule="evenodd" stroke="none" />
      <path d="M21.5004 49.8615C20.8861 49.8615 20.4766 50.2603 20.4766 50.8587L20.4766 52.8531C20.4766 53.4515 20.8861 53.8504 21.5004 53.8504C22.1147 53.8504 22.5242 53.4515 22.5242 52.8531L22.5242 50.8587C22.5242 50.2603 22.1147 49.8615 21.5004 49.8615L21.5004 49.8615ZM41.977 49.8615C41.3627 49.8615 40.9531 50.2603 40.9531 50.8587L40.9531 52.8531C40.9531 53.4515 41.3627 53.8504 41.977 53.8504C42.5912 53.8504 43.0008 53.4515 43.0008 52.8531L43.0008 50.8587C43.0008 50.2603 42.5912 49.8615 41.977 49.8615L41.977 49.8615Z" id="Shape" fill="#8D6C9F" fill-rule="evenodd" stroke="none" />
    </g>
  </g>
</svg>