<?xml version="1.0" encoding="utf-8"?>
<svg width="64px" height="64px" viewBox="0 0 64 64" version="1.1" xmlns:xlink="http://www.w3.org/1999/xlink" xmlns="http://www.w3.org/2000/svg">
  <defs>
    <path d="M0 0L63.1689 0L63.1689 63.8227L0 63.8227L0 0Z" id="path_1" />
    <clipPath id="mask_1">
      <use xlink:href="#path_1" />
    </clipPath>
  </defs>
  <g id="Ok-icon">
    <path d="M0 0L63.1689 0L63.1689 63.8227L0 63.8227L0 0Z" id="Background" fill="none" fill-rule="evenodd" stroke="none" />
    <g clip-path="url(#mask_1)">
      <path d="M30.5975 2.9917C15.3343 2.9917 2.9611 15.493 2.96106 30.9141C2.96102 46.3352 15.3342 58.8365 30.5973 58.8366C45.8605 58.8366 58.2337 46.3354 58.2338 30.9143C58.2339 15.4932 45.8608 2.99182 30.5976 2.9917L30.5975 2.9917Z" id="Shape" fill="#72CAAF" fill-rule="evenodd" stroke="none" />
      <path d="M30.5975 2.9917C15.3343 2.9917 2.96108 15.493 2.96106 30.9141C2.96104 46.3352 15.3342 58.8365 30.5974 58.8366C45.8605 58.8366 58.2338 46.3354 58.2339 30.9143C58.2339 15.4929 45.8606 2.99162 30.5973 2.9917L30.5975 2.9917ZM30.5974 52.8532C20.8344 52.8548 12.2707 46.273 9.66642 36.7663C7.06218 27.2596 11.0578 17.1657 19.4323 12.0953C27.8069 7.02497 38.501 8.22493 45.5704 15.0282L46.2416 15.6964C46.4982 15.9624 46.745 16.2349 46.9819 16.5142C52.5672 23.0005 53.8878 32.1852 50.3602 40.0091C46.8325 47.833 39.1069 52.8541 30.5974 52.8532L30.5974 52.8532Z" id="Shape" fill="#F9E3AE" fill-rule="evenodd" stroke="none" />
      <path d="M30.5975 52.8533C18.605 52.8533 8.88321 43.0308 8.88321 30.9142L7.24476 30.9142C6.07271 30.9102 4.95949 31.4326 4.20635 32.3399C3.4532 33.2472 3.13801 34.4458 3.34605 35.6112C5.60201 49.0368 17.1144 58.86 30.5926 58.86C44.0708 58.86 55.5832 49.0368 57.8391 35.6112C58.0469 34.4475 57.7329 33.2507 56.982 32.3437C56.2311 31.4368 55.1206 30.9132 53.9503 30.9142L52.3118 30.9142C52.3118 43.0308 42.59 52.8533 30.5975 52.8533L30.5975 52.8533Z" id="Shape" fill="#F6D397" fill-rule="evenodd" stroke="none" />
      <path d="M30.5975 1.99451C14.7892 1.99451 1.97409 14.9423 1.97406 30.9141C1.97404 46.886 14.7891 59.8338 30.5974 59.8339C46.4057 59.8339 59.2208 46.8862 59.2209 30.9143C59.2209 14.9422 46.4057 1.99442 30.5973 1.99451L30.5975 1.99451ZM30.5975 57.8394C15.8795 57.8394 3.94814 45.7846 3.94812 30.9143C3.9481 16.0439 15.8794 3.98906 30.5974 3.98901C45.3155 3.98897 57.2468 16.0437 57.2469 30.9141C57.2469 45.7847 45.3155 57.8395 30.5974 57.8394L30.5975 57.8394Z" id="Shape" fill="#8D6C9F" fill-rule="evenodd" stroke="none" />
      <path d="M30.5975 49.8616C30.0524 49.8616 29.6105 50.308 29.6105 50.8588L29.6105 52.8533C29.6105 53.404 30.0524 53.8505 30.5975 53.8505C31.1426 53.8505 31.5845 53.404 31.5845 52.8533L31.5845 50.8588C31.5845 50.308 31.1426 49.8616 30.5975 49.8616L30.5975 49.8616ZM36.5196 49.9413C36.3637 49.4274 35.8327 49.1308 35.3191 49.2706C34.8055 49.4105 34.4939 49.9364 34.6146 50.4598L35.1279 52.3845C35.2723 52.9187 35.8181 53.2335 36.3468 53.0875C36.8756 52.9416 37.1871 52.3902 37.0427 51.8559L36.5196 49.9413ZM21.4676 47.3884C21.24 47.2552 20.9693 47.2193 20.7155 47.2885C20.4616 47.3578 20.2456 47.5265 20.1154 47.7573L19.1283 49.4825C18.8832 49.9561 19.051 50.5407 19.509 50.8082C19.9669 51.0756 20.5521 50.9308 20.8359 50.4798L21.8229 48.7546C21.9555 48.5259 21.9926 48.2533 21.9259 47.9969C21.8593 47.7406 21.6943 47.5216 21.4676 47.3884L21.4676 47.3884ZM41.0796 47.7573C40.7958 47.3063 40.2106 47.1615 39.7527 47.4289C39.2948 47.6964 39.1269 48.281 39.3721 48.7545L40.3591 50.4797C40.5271 50.8043 40.8578 51.0097 41.2203 51.0146C41.5828 51.0196 41.9188 50.8233 42.0955 50.5035C42.2722 50.1836 42.2611 49.7916 42.0666 49.4825L41.0796 47.7573ZM25.8696 49.2332C25.3437 49.0938 24.8053 49.4104 24.6654 49.9412L24.1522 51.8559C24.0465 52.2043 24.1373 52.5833 24.3891 52.8442C24.6408 53.1052 25.0134 53.2066 25.3609 53.1088C25.7083 53.0109 25.9753 52.7294 26.0571 52.3745L26.5704 50.4498C26.7083 49.9185 26.395 49.3745 25.8696 49.2332L25.8696 49.2332Z" id="Shape" fill="#8D6C9F" fill-rule="evenodd" stroke="none" />
      <path d="M41.7409 22.2282L27.6364 36.4886L20.4411 29.2188C20.0495 28.88 19.4657 28.9028 19.1012 29.2711C18.7366 29.6395 18.714 30.2293 19.0494 30.6249L26.9455 38.6028C27.3305 38.9894 27.9522 38.9894 28.3372 38.6028L43.1424 23.6443C43.4778 23.2486 43.4552 22.6588 43.0907 22.2905C42.7261 21.9222 42.1423 21.8994 41.7507 22.2382L41.7409 22.2282Z" id="Shape" fill="#FAEFDE" fill-rule="evenodd" stroke="none" />
      <path d="M37.852 11.2885C38.5589 11.5562 39.2508 11.8624 39.9248 12.206C40.0623 12.2772 40.2144 12.3148 40.3689 12.3157C40.8238 12.313 41.2179 11.9965 41.3232 11.5495C41.4286 11.1024 41.2179 10.6405 40.8131 10.4309C40.0751 10.0565 39.3173 9.72361 38.543 9.4337C38.0433 9.27703 37.5095 9.54147 37.326 10.0365C37.1426 10.5315 37.3734 11.0852 37.852 11.2985L37.852 11.2885ZM15.9403 16.1052C20.6524 11.3622 27.3257 9.18274 33.8941 10.2415C34.2467 10.2986 34.6027 10.1613 34.828 9.88122C35.0532 9.60118 35.1135 9.22099 34.986 8.8839C34.8586 8.54681 34.5628 8.30404 34.2101 8.24705C24.477 6.64797 14.8352 11.5802 10.3497 20.4529C5.86421 29.3255 7.56093 40.1091 14.5486 47.139C14.9402 47.4778 15.5239 47.455 15.8885 47.0867C16.2531 46.7184 16.2756 46.1286 15.9403 45.7329C12.0497 41.8051 9.86369 36.476 9.86368 30.919C9.86368 25.3621 12.0497 20.033 15.9403 16.1052L15.9403 16.1052ZM46.6463 14.6992C45.9963 14.0395 45.3074 13.4201 44.5835 12.8444C44.3099 12.5924 43.9197 12.5163 43.5729 12.6473C43.2261 12.7783 42.9811 13.0943 42.9382 13.4658C42.8953 13.8374 43.0618 14.2019 43.3694 14.41C44.0309 14.9364 44.6604 15.5025 45.2546 16.1053C49.1422 20.0327 51.3263 25.3597 51.3263 30.9142C51.3263 36.4687 49.1422 41.7956 45.2546 45.723C44.973 45.9667 44.8503 46.3494 44.937 46.7137C45.0237 47.078 45.3052 47.3624 45.6658 47.45C46.0264 47.5377 46.4051 47.4137 46.6463 47.1291C55.5072 38.1727 55.5072 23.6556 46.6463 14.6992L46.6463 14.6992Z" id="Shape" fill="#8D6C9F" fill-rule="evenodd" stroke="none" />
    </g>
  </g>
</svg>