<?xml version="1.0" encoding="utf-8"?>
<svg width="64px" height="64px" viewBox="0 0 64 64" version="1.1" xmlns:xlink="http://www.w3.org/1999/xlink" xmlns="http://www.w3.org/2000/svg">
  <defs>
    <path d="M0 0L63.8006 0L63.8006 63.8227L0 63.8227L0 0Z" id="path_1" />
    <clipPath id="mask_1">
      <use xlink:href="#path_1" />
    </clipPath>
  </defs>
  <g id="Cursor-icon">
    <path d="M0 0L63.8006 0L63.8006 63.8227L0 63.8227L0 0Z" id="Background" fill="none" fill-rule="evenodd" stroke="none" />
    <g clip-path="url(#mask_1)">
      <path d="M54.5096 28.9197L14.1358 12.8643C13.7655 12.716 13.3425 12.8028 13.0604 13.085C12.7784 13.3671 12.6916 13.7903 12.8399 14.1607L28.9096 54.5485C29.05 54.902 29.3792 55.1449 29.7584 55.1745C30.1375 55.2042 30.5004 55.0155 30.6941 54.6881L37.4031 43.3297C37.5595 43.0633 37.8304 42.8845 38.1367 42.8455C38.443 42.8065 38.7501 42.9116 38.9682 43.1302L52.2268 56.4333C52.6007 56.8078 53.1082 57.0182 53.6374 57.0182C54.1665 57.0182 54.674 56.8078 55.048 56.4333L56.4536 55.0272C56.8279 54.6531 57.0383 54.1454 57.0383 53.6161C57.0383 53.0868 56.8279 52.5791 56.4536 52.205L43.1551 38.892C42.9366 38.6738 42.8315 38.3666 42.8705 38.0602C42.9095 37.7538 43.0883 37.4828 43.3545 37.3263L54.6492 30.6648C54.9544 30.4651 55.1262 30.1145 55.0971 29.7508C55.068 29.3871 54.8427 29.0684 54.5096 28.9197L54.5096 28.9197Z" id="Shape" fill="#85CBF8" fill-rule="evenodd" stroke="none" />
      <path d="M14.0561 17.2222L51.9377 32.2704L54.6293 30.6848C54.9467 30.4912 55.13 30.137 55.1048 29.7659C55.0797 29.3949 54.8503 29.0687 54.5096 28.9197L14.1358 12.8643C13.7655 12.716 13.3425 12.8028 13.0604 13.085C12.7784 13.3671 12.6916 13.7903 12.8399 14.1607L14.0561 17.2222ZM56.4536 52.205L44.3813 40.1385L44.3813 40.1385C43.6392 40.5899 43.1463 41.3581 43.045 42.2209C42.9438 43.0838 43.2455 43.9453 43.8629 44.5563L55.3669 56.1142L56.4536 55.0272C56.8279 54.6531 57.0383 54.1455 57.0383 53.6161C57.0383 53.0868 56.8279 52.5791 56.4536 52.205L56.4536 52.205Z" id="Shape" fill="#9FDDFF" fill-rule="evenodd" stroke="none" />
      <path d="M57.1613 51.4969L43.8629 38.2039L55.1576 31.5424C55.8393 31.1563 56.2318 30.4066 56.1609 29.6262C56.09 28.8458 55.5688 28.1792 54.8286 27.9224L14.5046 11.9667C13.764 11.6702 12.918 11.8438 12.3539 12.4081C11.7898 12.9724 11.6163 13.8187 11.9127 14.5595L27.9127 54.9174C28.1935 55.6245 28.852 56.1102 29.6102 56.1695C30.3684 56.2288 31.0943 55.8514 31.4816 55.1967L38.2205 43.8781L51.519 57.1413C52.6866 58.3078 54.5781 58.3078 55.7458 57.1413L57.1613 55.7352C57.7244 55.1738 58.041 54.4113 58.041 53.6161C58.041 52.8208 57.7244 52.0583 57.1613 51.4969L57.1613 51.4969ZM55.7558 54.3191L54.3402 55.7252C53.9514 56.1118 53.3234 56.1118 52.9346 55.7252L39.6262 42.4221C39.246 42.0658 38.7414 41.8725 38.2206 41.8836L37.9614 41.8836C37.3439 41.9686 36.8018 42.3376 36.4959 42.8808L29.7869 54.1794L13.767 13.7916L54.1408 29.8171L42.866 36.4786C42.3336 36.7915 41.9761 37.3335 41.898 37.9463C41.82 38.5591 42.0302 39.1735 42.4673 39.6099L55.7458 52.913C56.1323 53.3019 56.1323 53.9301 55.7458 54.3191L55.7558 54.3191Z" id="Shape" fill="#8D6C9F" fill-rule="evenodd" stroke="none" />
      <path d="M43.863 30.0265C44.3421 30.0277 44.7543 29.6877 44.8445 29.217C44.9347 28.7463 44.6774 28.278 44.2318 28.1018L29.5776 22.288C29.2464 22.156 28.8699 22.2109 28.5901 22.432C28.3103 22.653 28.1696 23.0067 28.2212 23.3596C28.2727 23.7125 28.5086 24.0111 28.84 24.1429L43.4543 29.9168C43.5811 29.9822 43.7205 30.0196 43.863 30.0265L43.863 30.0265ZM25.4904 20.6825L22.3502 19.4359C22.019 19.304 21.6425 19.3589 21.3627 19.5799C21.0829 19.801 20.9422 20.1546 20.9938 20.5076C21.0453 20.8605 21.2812 21.1591 21.6126 21.2908L24.7527 22.5373C25.084 22.6693 25.4604 22.6144 25.7403 22.3933C26.0201 22.1723 26.1607 21.8187 26.1092 21.4657C26.0576 21.1128 25.8217 20.8142 25.4904 20.6825L25.4904 20.6825ZM7.97514 6.70137C7.57724 6.36513 6.98765 6.39201 6.62196 6.76305C6.25628 7.13409 6.23778 7.7242 6.5795 8.11744L8.03496 9.57339C8.42317 9.96423 9.05458 9.96632 9.44538 9.57806C9.83617 9.18981 9.83842 8.55818 9.45039 8.16715L7.97514 6.70137ZM14.1258 8.04762C14.6764 8.04762 15.1227 7.60114 15.1227 7.05039L15.1227 4.98612C15.1227 4.43537 14.6764 3.98889 14.1258 3.98889C13.5752 3.98889 13.1289 4.43536 13.1289 4.98612L13.1289 7.05039C13.1289 7.60114 13.5752 8.04762 14.1258 8.04762L14.1258 8.04762ZM7.9252 14.2504C7.9252 13.6996 7.47888 13.2532 6.92832 13.2532L4.85479 13.2532C4.30423 13.2532 3.85791 13.6996 3.85791 14.2504C3.85791 14.8012 4.30423 15.2476 4.85479 15.2476L6.92832 15.2476C7.47888 15.2476 7.9252 14.8012 7.9252 14.2504L7.9252 14.2504ZM8.03484 18.9473L6.57939 20.3932C6.27832 20.6307 6.14007 21.0199 6.22381 21.3941C6.30755 21.7684 6.59844 22.0615 6.97197 22.1479C7.34551 22.2343 7.7355 22.0988 7.97502 21.7993L9.45042 20.3434C9.78653 19.9453 9.75966 19.3555 9.38875 18.9897C9.01785 18.6239 8.42794 18.6054 8.03484 18.9473L8.03484 18.9473ZM19.4991 9.86256C19.7641 9.86409 20.0187 9.76003 20.2069 9.57336L21.6723 8.10744C22.011 7.71177 21.9882 7.12198 21.62 6.75363C21.2518 6.38529 20.6622 6.36251 20.2667 6.70134L18.8013 8.16727C18.5137 8.45257 18.4273 8.88355 18.5826 9.25772C18.7379 9.6319 19.1041 9.87489 19.5091 9.87253L19.4991 9.86256Z" id="Shape" fill="#8D6C9F" fill-rule="evenodd" stroke="none" />
    </g>
  </g>
</svg>